<?xml version="1.0" standalone="no"?>
<!DOCTYPE svg PUBLIC "-//W3C//DTD SVG 20010904//EN"
 "http://www.w3.org/TR/2001/REC-SVG-20010904/DTD/svg10.dtd">
<svg version="1.0" xmlns="http://www.w3.org/2000/svg"
 width="237.000000pt" height="237.000000pt" viewBox="0 0 237.000000 237.000000"
 preserveAspectRatio="xMidYMid meet">
<metadata>
Created by potrace 1.11, written by Peter Selinger 2001-2013
</metadata>
<g transform="translate(0.000000,237.000000) scale(0.100000,-0.100000)"
fill="#000000" stroke="none">
<path d="M714 2316 c-226 -43 -391 -261 -428 -564 -39 -317 49 -661 207 -811
45 -42 61 -35 41 21 -13 36 -21 85 -39 215 -3 18 -16 81 -31 140 -58 244 -66
382 -27 463 61 124 119 197 223 280 119 96 166 118 301 141 204 34 222 39 208
56 -50 59 -290 90 -455 59z"/>
<path d="M1104 2159 c-179 -38 -317 -113 -449 -244 -141 -138 -186 -250 -135
-333 13 -21 25 -30 33 -26 6 4 57 45 113 91 167 138 290 217 405 259 62 22
104 29 184 29 94 0 179 -41 266 -127 56 -56 169 -198 169 -213 0 -3 11 -23 25
-44 13 -22 34 -68 46 -103 36 -108 26 -172 -82 -496 -20 -60 -20 -92 -1 -92 5
0 15 13 21 28 6 15 23 41 37 57 37 43 69 100 102 185 83 212 98 447 40 621
-13 40 -20 86 -20 123 2 53 -1 61 -30 88 -18 16 -52 43 -76 60 -55 38 -238
115 -322 135 -93 22 -229 23 -326 2z"/>
<path d="M1095 1850 c-16 -3 -30 -10 -30 -15 0 -10 32 -17 129 -30 167 -23
331 -217 380 -450 17 -80 13 -210 -9 -260 -18 -45 -14 -65 14 -65 65 0 82 44
86 225 4 157 -3 186 -62 285 -53 90 -113 152 -204 210 -132 85 -223 115 -304
100z"/>
<path d="M1918 1779 c-2 -6 5 -30 16 -52 42 -84 47 -149 31 -357 -12 -148 -11
-153 29 -238 19 -43 38 -95 42 -117 7 -47 40 -115 55 -115 21 0 162 83 200
117 72 65 84 130 49 267 -25 99 -38 127 -126 266 -77 122 -119 172 -171 209
-38 26 -119 39 -125 20z"/>
<path d="M147 1712 c-38 -22 -54 -39 -77 -87 -48 -98 -61 -165 -65 -335 -4
-137 2 -218 20 -309 15 -70 14 -227 -2 -271 -14 -41 -14 -45 2 -55 30 -18 50
-38 110 -110 114 -136 195 -198 451 -345 293 -168 394 -186 394 -70 0 49 -40
158 -82 224 -45 69 -89 109 -187 169 -99 60 -218 173 -281 266 -165 246 -239
542 -219 885 1 33 -1 61 -7 63 -5 1 -31 -10 -57 -25z"/>
<path d="M1000 1725 c-44 -15 -104 -77 -133 -139 -35 -74 -49 -173 -43 -316 5
-144 3 -130 16 -130 6 0 10 27 10 62 0 57 15 141 42 229 6 20 22 50 36 65 54
62 162 215 162 229 0 18 -38 18 -90 0z"/>
<path d="M727 1614 c-146 -156 -142 -144 -106 -269 50 -174 57 -220 55 -357
-1 -71 2 -132 7 -135 4 -3 23 -7 40 -10 18 -2 43 -6 57 -9 73 -13 182 -19 330
-19 198 0 268 16 329 75 44 43 59 80 32 80 -9 0 -57 -9 -106 -19 -84 -18 -144
-27 -240 -35 -22 -2 -68 0 -103 5 -112 16 -186 67 -231 162 -69 148 -79 395
-20 524 32 70 17 72 -44 7z"/>
<path d="M1128 1632 c-57 -4 -74 -20 -52 -50 21 -31 68 -53 123 -58 164 -16
204 -55 202 -204 0 -41 -2 -85 -5 -97 -15 -70 -17 -113 -7 -113 29 0 92 138
106 231 15 105 -43 228 -128 272 -38 20 -125 27 -239 19z"/>
<path d="M1120 1461 c-122 -25 -171 -53 -204 -119 -21 -41 -15 -51 16 -28 13
9 38 28 57 41 38 28 119 55 164 55 33 0 75 -28 151 -103 63 -62 76 -52 51 39
-11 41 -29 80 -48 100 -34 40 -54 41 -187 15z"/>
<path d="M1064 1346 c-39 -28 -55 -146 -20 -146 7 0 16 15 21 32 18 60 106 94
150 58 18 -15 31 6 15 25 -13 16 -94 45 -125 45 -11 0 -30 -6 -41 -14z"/>
<path d="M962 1287 c-16 -19 -33 -104 -30 -148 6 -101 85 -175 176 -165 64 7
119 49 80 60 -85 24 -103 33 -139 74 -40 46 -59 93 -59 149 0 36 -12 49 -28
30z"/>
<path d="M1256 1282 c-3 -5 -4 -17 -1 -24 8 -21 -9 -59 -40 -91 -36 -36 -71
-44 -94 -23 -39 35 -58 -1 -23 -44 22 -27 95 -37 131 -18 44 23 67 80 62 154
-1 27 -26 60 -35 46z"/>
<path d="M1114 1260 c-12 -5 -26 -22 -32 -39 -11 -30 -10 -31 17 -31 32 0 64
30 59 56 -4 21 -16 25 -44 14z"/>
<path d="M1944 1112 c-6 -4 -20 -27 -31 -52 -12 -25 -28 -54 -37 -65 -8 -11
-39 -56 -68 -100 -58 -88 -219 -253 -270 -278 -33 -16 -45 -16 -126 -2 -37 7
-42 5 -36 -9 3 -8 36 -30 73 -48 36 -17 103 -58 148 -90 117 -84 154 -77 242
39 54 73 71 102 126 229 40 93 43 129 20 263 -9 49 -14 94 -13 101 4 15 -13
22 -28 12z"/>
<path d="M2174 888 c-145 -131 -159 -149 -215 -285 -71 -170 -135 -246 -233
-278 -90 -30 -112 -26 -273 53 -91 45 -168 76 -201 81 -72 11 -254 3 -269 -13
-3 -3 6 -19 21 -36 14 -17 26 -36 26 -42 0 -41 46 -154 76 -188 55 -61 72 -61
329 -4 144 31 403 99 485 126 165 54 230 136 237 298 8 206 16 243 65 296 37
41 0 34 -48 -8z"/>
<path d="M745 762 c-20 -10 -52 -15 -92 -14 -70 2 -76 -5 -48 -57 31 -61 113
-111 233 -142 199 -51 389 -41 459 23 30 28 22 36 -32 36 -62 0 -141 25 -275
87 -63 29 -138 60 -165 68 -46 13 -54 13 -80 -1z"/>
</g>
</svg>
